<svg width="16" height="13" viewBox="0 0 16 13" fill="none" xmlns="http://www.w3.org/2000/svg">
<path fill-rule="evenodd" clip-rule="evenodd" d="M0.935414 0.0438827C0.721943 0.0994595 0.582119 0.179784 0.392217 0.355953C-0.364265 1.05773 0.0319188 2.26329 1.08105 2.45214C1.58496 2.54284 2.14735 2.27146 2.39477 1.81825C2.66051 1.3315 2.58076 0.783625 2.18527 0.378886C1.86545 0.0515975 1.39274 -0.0751065 0.935414 0.0438827ZM3.84002 1.22113V1.84134H9.92001H16V1.22113V0.600921H9.92001H3.84002V1.22113ZM0.987462 5.29097C0.649858 5.37353 0.284434 5.65502 0.137295 5.94588C-0.183022 6.57897 0.0753696 7.2947 0.73876 7.61203C0.963454 7.71949 0.992963 7.72576 1.27511 7.72576C1.54591 7.72576 1.59327 7.71677 1.78386 7.6294C2.18517 7.44542 2.45232 7.11438 2.53037 6.70435C2.66491 5.99764 2.09449 5.30785 1.34704 5.27342C1.21381 5.26728 1.05201 5.27518 0.987462 5.29097ZM3.84002 6.50047V7.10555H9.92001H16V6.50047V5.89538H9.92001H3.84002V6.50047ZM0.979772 10.5662C0.301626 10.7258 -0.133007 11.416 0.0380143 12.0616C0.103753 12.3098 0.208223 12.4785 0.409972 12.6626C1.04779 13.2442 2.05851 13.0486 2.43462 12.2707C2.77404 11.5687 2.32653 10.7185 1.5331 10.5578C1.32841 10.5164 1.18208 10.5186 0.979772 10.5662ZM3.84002 11.7798V12.4H9.92001H16V11.7798V11.1596H9.92001H3.84002V11.7798Z" fill="#878787"/>
</svg>
