<svg width="15" height="17" viewBox="0 0 15 17" fill="none" xmlns="http://www.w3.org/2000/svg">
<path fill-rule="evenodd" clip-rule="evenodd" d="M1.99181 0.0207782V0.0415563H1.95412C1.93338 0.0415563 1.88939 0.0425814 1.85636 0.043835L1.79629 0.0461171V0.0663447V0.0865757L1.74818 0.086593C1.72171 0.0866034 1.68665 0.087618 1.67027 0.0888474L1.64049 0.0910845V0.11134V0.131595H1.58244H1.5244V0.154105V0.176614H1.4665H1.4086L1.40769 0.198258L1.40678 0.219902L1.36783 0.220872L1.32887 0.221842V0.242128V0.262418L1.28916 0.264922L1.24944 0.267425V0.287819V0.308209H1.21126H1.17307V0.330719V0.353229H1.15321H1.13335V0.373619V0.394013L1.09364 0.396517L1.05392 0.39902V0.419064V0.439108L1.01574 0.441605L0.977548 0.444102V0.464298V0.484495L0.958454 0.485523L0.939361 0.486555L0.93845 0.508199L0.937543 0.529843H0.917829H0.898118V0.552353V0.574862H0.85993H0.821743V0.597372V0.619882H0.801885H0.782027V0.642391V0.664901H0.76217H0.742312V0.685513V0.706129L0.723218 0.707157L0.704125 0.708189L0.703214 0.729833L0.702307 0.751477H0.68412H0.665937V0.773987V0.796496H0.646079H0.626222V0.819006V0.841516H0.606364H0.586507V0.864025V0.886535H0.566649H0.546791V0.909045V0.931554H0.52877H0.510745L0.508543 0.974842L0.50634 1.01813H0.488523H0.470706L0.469799 1.03977L0.468889 1.06142L0.449795 1.06245L0.430701 1.06348V1.08583V1.10817H0.410843H0.390986V1.15146V1.19474H0.371128H0.351271V1.23787V1.28099L0.332177 1.28202L0.313083 1.28305L0.312173 1.3047L0.311265 1.32634H0.293079H0.274895V1.37136V1.41638H0.255038H0.23518V1.4595V1.50262L0.216086 1.50365L0.196993 1.50469L0.196137 1.54884L0.195282 1.59299H0.177505H0.159727L0.157754 1.62676C0.156669 1.64533 0.155774 1.67494 0.155765 1.69255L0.15575 1.72459H0.13742H0.11909L0.119074 1.75835C0.119065 1.77692 0.11817 1.80731 0.117086 1.82588L0.115112 1.85965H0.0972433H0.0793745L0.0793592 1.91419C0.0793501 1.94419 0.078455 1.98393 0.0773704 2.0025L0.0753969 2.03626H0.0575281H0.0396594V2.14708V2.25789H0.0218121H0.00396455L0.00196361 2.32283C-0.000654537 2.4077 -0.000654537 14.5923 0.00196361 14.6772L0.00396455 14.7421H0.0218121H0.0396594V14.8529V14.9637H0.0575281H0.0753969L0.0773704 14.9975C0.078455 15.0161 0.0793501 15.0558 0.0793592 15.0858L0.0793745 15.1404H0.0972433H0.115112L0.117086 15.1741C0.11817 15.1927 0.119065 15.2231 0.119074 15.2416L0.11909 15.2754H0.13742H0.15575L0.155765 15.3074C0.155774 15.3251 0.156669 15.3547 0.157754 15.3732L0.159727 15.407H0.177596H0.195465V15.4501V15.4933L0.214559 15.4943L0.233653 15.4953L0.234508 15.5395L0.235363 15.5836H0.25513H0.274895V15.6269V15.6702H0.293085H0.311277L0.312179 15.6936L0.313083 15.7169L0.332177 15.718L0.351271 15.719V15.7621V15.8053H0.371128H0.390986V15.8485V15.8918H0.410843H0.430701V15.9142V15.9365L0.449795 15.9375L0.468889 15.9386L0.469799 15.9602L0.470706 15.9819H0.488523H0.50634L0.508543 16.0252L0.510745 16.0684H0.52877H0.546791V16.091V16.1135H0.566649H0.586507V16.136V16.1585H0.606364H0.626222V16.181V16.2035H0.646079H0.665937V16.226V16.2485H0.68412H0.702307L0.703214 16.2702L0.704125 16.2918L0.723218 16.2928L0.742312 16.2939V16.3145V16.3351H0.76217H0.782027V16.3576V16.3801H0.801885H0.821743V16.4026V16.4251H0.85993H0.898118V16.4476V16.4702H0.917829H0.937543L0.93845 16.4918L0.939361 16.5134L0.958454 16.5145L0.977548 16.5155V16.5357V16.5559L1.01574 16.5584L1.05392 16.5609V16.5809V16.6009L1.09364 16.6034L1.13335 16.6058V16.6263V16.6468H1.15321H1.17307V16.6693V16.6918H1.21278H1.2525V16.7122V16.7327L1.29069 16.7351L1.32887 16.7376V16.7579V16.7782L1.36783 16.7791L1.40678 16.7801L1.40769 16.8017L1.4086 16.8234H1.4665H1.5244V16.8459V16.8684H1.58244H1.64049V16.8887V16.9089L1.67027 16.9112C1.68665 16.9124 1.72171 16.9134 1.74818 16.9134L1.79629 16.9134V16.9337V16.9539L1.85636 16.9562C1.88939 16.9574 1.93338 16.9584 1.95412 16.9584H1.99181V16.9792V17H6.03512H10.0784V16.9796V16.9593L10.1945 16.9567L10.3106 16.9541V16.9338V16.9134L10.3404 16.9134C10.3568 16.9134 10.3836 16.9124 10.4 16.9112L10.4298 16.9089V16.8887V16.8686L10.4886 16.8676L10.5474 16.8667L10.5483 16.8473L10.5492 16.8279L10.577 16.8256C10.5923 16.8244 10.6184 16.8234 10.6349 16.8234H10.665V16.8009V16.7784H10.7032H10.7414V16.758V16.7376L10.7811 16.7351L10.8208 16.7326V16.7122V16.6918H10.859H10.8972V16.6693V16.6468H10.9369H10.9766V16.6243V16.6018H10.9965H11.0163V16.5813V16.5609L11.0545 16.5584L11.0927 16.5559V16.5355V16.5152H11.1126H11.1324V16.4931V16.471L11.1706 16.4685L11.2088 16.466V16.4456V16.4251H11.2285H11.2482L11.2491 16.4035L11.25 16.3818L11.2691 16.3808L11.2882 16.3798V16.3593V16.3389L11.3073 16.3379L11.3264 16.3368L11.3273 16.3152L11.3282 16.2935H11.3479H11.3676V16.271V16.2485H11.3875H11.4074V16.226V16.2035H11.4255H11.4437L11.4446 16.1819L11.4455 16.1602L11.4646 16.1592L11.4837 16.1582V16.1377V16.1173L11.5028 16.1162L11.5219 16.1152L11.5228 16.0937L11.5237 16.0722L11.5427 16.0712L11.5616 16.0702L11.5625 16.0485L11.5635 16.0269H11.5813H11.5991L11.6013 15.9836L11.6035 15.9403H11.6215H11.6395V15.9178V15.8953H11.6594H11.6793V15.8711V15.8468H11.6973H11.7153L11.7175 15.8035L11.7197 15.7602H11.7374H11.755L11.7572 15.7169L11.7594 15.6737H11.7772H11.7951L11.796 15.6503L11.7969 15.6269L11.816 15.6259L11.8351 15.6248V15.5817V15.5386H11.8529H11.8708L11.8728 15.5069C11.8739 15.4895 11.8748 15.4599 11.8748 15.4411V15.407H11.8946H11.9145V15.362V15.317H11.9328H11.9512L11.9512 15.2849C11.9512 15.2673 11.9521 15.2377 11.9532 15.2191L11.9551 15.1854H11.973H11.9909L11.9909 15.1308C11.9909 15.1008 11.9918 15.0611 11.9929 15.0425L11.9948 15.0088H12.0127H12.0306V14.9206V14.8325L12.0497 14.8314L12.0688 14.8304L12.0696 14.4988L12.0703 14.1672H12.0505H12.0306V14.1222V14.0772H12.0126H11.9945L11.9923 14.0339L11.9901 13.9906H11.9722H11.9542V13.9681V13.9456H11.9344H11.9145V13.9231V13.9006H11.8946H11.8748V13.8781V13.8556H11.8549H11.8351V13.8348V13.814H11.8152H11.7953V13.7915V13.769H11.7573H11.7193L11.7184 13.7474L11.7174 13.7257L11.6586 13.7248L11.5998 13.7238V13.7036V13.6834L11.5315 13.6809C11.4939 13.6795 11.4327 13.6795 11.3955 13.6809L11.3279 13.6834V13.7037V13.724H11.27H11.2121L11.2112 13.7456L11.2103 13.7673L11.1714 13.7682L11.1324 13.7692V13.7916V13.814H11.1126H11.0927V13.8344V13.8547L11.0546 13.8572L11.0166 13.8597L11.0157 13.881L11.0148 13.9023L10.996 13.9033L10.9773 13.9044L10.9751 13.9456L10.9729 13.9868L10.9557 13.9879L10.9384 13.9889L10.9375 14.0123L10.9366 14.0356H10.9169H10.8972V14.0789V14.1222H10.8792H10.8612L10.859 14.2105L10.8567 14.2988H10.8388H10.8208V14.4663C10.8208 14.5583 10.8199 14.648 10.8188 14.6654L10.8168 14.6971H10.799H10.7811V14.7646V14.8321H10.7612H10.7414V14.8772V14.9222H10.7233H10.7053L10.7031 14.9655L10.7009 15.0088H10.6833H10.6657L10.6635 15.052L10.6613 15.0953H10.6433H10.6253V15.1178V15.1404H10.6054H10.5856V15.1629V15.1854H10.5657H10.5458V15.2079V15.2304H10.5277H10.5095L10.5086 15.252L10.5077 15.2737L10.4886 15.2747L10.4695 15.2757V15.2964V15.317H10.4496H10.4298V15.3395V15.362H10.4099H10.39V15.3845V15.407H10.3503H10.3106V15.4295V15.452H10.2724H10.2342V15.4724V15.4928L10.1945 15.4953L10.1548 15.4978V15.5182V15.5386L10.1067 15.5386C10.0802 15.5386 10.0452 15.5396 10.0288 15.5409L9.999 15.5431V15.5634V15.5836H6.05345H2.1079V15.5632V15.5428L2.03 15.5403L1.9521 15.5378V15.5174V15.497L1.92384 15.497C1.90829 15.497 1.88217 15.496 1.86579 15.4948L1.83601 15.4925V15.4727V15.4529L1.79782 15.4504L1.75963 15.4479V15.4274V15.407H1.73992H1.72021L1.7193 15.3854L1.71839 15.3637L1.68111 15.3627L1.64383 15.3618L1.64292 15.3402L1.64201 15.3187L1.62139 15.3177L1.60077 15.3167V15.296V15.2754H1.58244H1.56411V15.2529V15.2304H1.54425H1.5244V15.2079V15.1854H1.50454H1.48468V15.1629V15.1404H1.46666H1.44863L1.44643 15.0971L1.44423 15.0538H1.42627H1.40831V15.0313V15.0088H1.38845H1.36859V14.9637V14.9187H1.34873H1.32887V14.8529V14.7871H1.30902H1.28916V14.7196V14.6521H1.27131H1.25346L1.25146 14.5871C1.24885 14.5023 1.24885 2.49774 1.25146 2.41286L1.25346 2.34793H1.27131H1.28916V2.2804V2.21287H1.30902H1.32887V2.14708V2.08128H1.34873H1.36859V2.03626V1.99124H1.38677H1.40496L1.40587 1.9696L1.40678 1.94795L1.42551 1.94693L1.44425 1.94591L1.44644 1.90278L1.44863 1.85965H1.46666H1.48468V1.83714V1.81463H1.50454H1.5244V1.79212V1.76961H1.54425H1.56411V1.7471V1.72459H1.58244H1.60077V1.70397V1.68335L1.62139 1.68232L1.64201 1.6813L1.64291 1.66003L1.64382 1.63876L1.68034 1.63627L1.71686 1.63378V1.61339V1.59299H1.73825H1.75963V1.57256V1.55213L1.79782 1.54964L1.83601 1.54714V1.5273V1.50746L1.86579 1.50523C1.88217 1.504 1.90829 1.50298 1.92384 1.50297L1.9521 1.50295V1.48218V1.4614L1.98188 1.46138C1.99826 1.46137 2.02508 1.46035 2.04146 1.45913L2.07124 1.45689V1.43663V1.41638H6.03512H9.999V1.43663V1.45689L10.0288 1.45913C10.0452 1.46035 10.0802 1.46137 10.1067 1.46138L10.1548 1.4614V1.48173V1.50206L10.1945 1.50455L10.2342 1.50704V1.52751V1.54797H10.2724H10.3106V1.57048V1.59299H10.3503H10.39V1.6155V1.63801H10.4099H10.4298V1.65862V1.67924L10.4489 1.68027L10.4679 1.6813L10.4689 1.70278L10.4698 1.72427L10.4887 1.72529L10.5077 1.72632L10.5086 1.74796L10.5095 1.76961H10.5275H10.5456L10.5465 1.79125L10.5474 1.81289L10.5665 1.81393L10.5856 1.81496V1.8373V1.85965H10.6054H10.6253V1.88216V1.90466H10.6433H10.6613L10.6635 1.94795L10.6657 1.99124H10.6833H10.7009L10.7031 2.03453L10.7053 2.07782H10.7233H10.7414V2.12284V2.16785H10.7612H10.7811V2.23538V2.30291H10.799H10.8168L10.8188 2.33461C10.8199 2.35205 10.8208 2.44165 10.8208 2.53374V2.70116H10.8388H10.8567L10.859 2.78947L10.8612 2.87778H10.8792H10.8972V2.92106V2.96435H10.917H10.9369V2.98686V3.00937H10.9549H10.9729L10.9751 3.0525L10.9773 3.09564L10.9961 3.09666L11.0148 3.09768L11.0157 3.11898L11.0166 3.14029L11.0546 3.14277L11.0927 3.14526V3.16562V3.18598H11.1126H11.1324V3.20849V3.231H11.1721H11.2118V3.25351V3.27602H11.2699H11.3279V3.29629V3.31657L11.3962 3.31903C11.4338 3.32039 11.4949 3.32038 11.5321 3.31902L11.5998 3.31654V3.29636V3.27617L11.6586 3.27523L11.7174 3.27429L11.7184 3.25265L11.7193 3.231H11.7573H11.7953V3.20849V3.18598H11.8152H11.8351V3.16521V3.14443H11.8549H11.8748V3.12192V3.09941H11.8946H11.9145V3.07707V3.05472L11.9336 3.05369L11.9527 3.05266L11.9536 3.03101L11.9545 3.00937H11.9723H11.9901L11.9923 2.96608L11.9945 2.92279H12.0126H12.0306V2.87778V2.83276H12.0505H12.0703L12.0696 2.50117L12.0688 2.16959L12.0497 2.16855L12.0306 2.16753V2.05877V1.95001L12.0115 1.94898L11.9924 1.94795L11.9916 1.88129L11.9907 1.81463H11.9725H11.9542L11.9542 1.78259C11.9542 1.76498 11.9533 1.73536 11.9522 1.7168L11.9502 1.68303H11.9324H11.9145V1.63801V1.59299H11.8946H11.8748V1.5589C11.8748 1.54014 11.8739 1.51053 11.8728 1.4931L11.8708 1.4614H11.8529H11.8351V1.41828V1.37515L11.816 1.37412L11.7969 1.37309L11.796 1.34971L11.7951 1.32634H11.7772H11.7594L11.7572 1.28305L11.755 1.23976H11.7373H11.7197L11.7174 1.19474L11.7152 1.14972H11.6972H11.6793V1.12722V1.10471H11.6594H11.6395V1.0822V1.05969H11.6215H11.6035L11.6013 1.0164L11.5991 0.973111H11.5813H11.5635L11.5625 0.951467L11.5616 0.929823L11.5425 0.928791L11.5235 0.927762V0.905415V0.883072H11.5036H11.4837V0.860562V0.838053H11.4639H11.444V0.817274V0.796496H11.4257H11.4074V0.773987V0.751477H11.3875H11.3676V0.728967V0.706458H11.3479H11.3282L11.3273 0.684814L11.3264 0.66317L11.3073 0.662138L11.2882 0.661109V0.640494V0.619882H11.2684H11.2485V0.597372V0.574862H11.2286H11.2088V0.552353V0.529843H11.1706H11.1324V0.507333V0.484824H11.1126H11.0927V0.464461V0.444102L11.0545 0.441605L11.0163 0.439108V0.418676V0.398248H10.9965H10.9766V0.375738V0.353229H10.9369H10.8972V0.330719V0.308209H10.8591H10.8211L10.8202 0.286565L10.8193 0.264922L10.7803 0.263952L10.7414 0.262982V0.242724V0.222468L10.7032 0.219971L10.665 0.217475V0.197043V0.176614H10.6349C10.6184 0.176614 10.5923 0.175607 10.577 0.174374L10.5492 0.172137L10.5483 0.15273L10.5474 0.133327L10.4886 0.132385L10.4298 0.131446V0.109009V0.0865757H10.3702H10.3106V0.0662131V0.0458505L10.1945 0.0432878L10.0784 0.0407252V0.0203626V0H6.03512H1.99181V0.0207782ZM11.3279 4.49102V4.51128L11.2981 4.51352C11.2818 4.51474 11.255 4.51576 11.2386 4.51577L11.2088 4.51579V4.53622V4.55665L11.1706 4.55914L11.1324 4.56164V4.58158V4.60153L11.0942 4.60403L11.056 4.60652V4.62695V4.64738H11.0362H11.0163V4.66989V4.6924H10.9965H10.9766V4.71491V4.73742H10.9586H10.9406L10.9384 4.78071L10.9362 4.824H10.9167H10.8972V4.86902V4.91404H10.8793H10.8614L10.8595 4.9478C10.8584 4.96637 10.8575 4.99598 10.8575 5.0136L10.8575 5.04563H10.8391H10.8208V5.17896V5.31228H10.8391H10.8575L10.8575 5.34605C10.8575 5.36462 10.8584 5.39501 10.8595 5.41358L10.8614 5.44734H10.8793H10.8972V5.49063V5.53392H10.917H10.9369V5.57704V5.62016L10.956 5.62119L10.9751 5.62222L10.976 5.64371L10.9769 5.66519L10.9958 5.66622L11.0148 5.66724L11.0157 5.68889L11.0166 5.71053H11.0348H11.053V5.73304V5.75555H11.0727H11.0924L11.0933 5.77719L11.0942 5.79884L11.1133 5.79987L11.1324 5.8009V5.82135V5.8418L11.1515 5.84283L11.1706 5.84386L11.1715 5.86534L11.1724 5.88682L11.1914 5.88785L11.2103 5.88888L11.2112 5.91052L11.2121 5.93217H11.2303H11.2485V5.95468V5.97718H11.2682H11.2879L11.2888 5.99883L11.2897 6.02047L11.3088 6.0215L11.3279 6.02253V6.04298V6.06343L11.347 6.06446L11.3661 6.06549L11.367 6.08714L11.3679 6.10878H11.386H11.404L11.4049 6.13042L11.4058 6.15207L11.4248 6.1531L11.4437 6.15412L11.4446 6.17561L11.4455 6.19709L11.4646 6.19812L11.4837 6.19915V6.2196V6.24005L11.5028 6.24107L11.5219 6.24211L11.5228 6.26359L11.5237 6.28507L11.5427 6.2861L11.5616 6.28713L11.5625 6.30877L11.5635 6.33041H11.5816H11.5998V6.35292V6.37543H11.6195H11.6393L11.6402 6.39708L11.6411 6.41872L11.6602 6.41975L11.6793 6.42078V6.44123V6.46168L11.6984 6.46271L11.7174 6.46374L11.7184 6.48538L11.7193 6.50703H11.7373H11.7553L11.7562 6.52867L11.7572 6.55032L11.7763 6.55135L11.7953 6.55238V6.57472V6.59707H11.8151H11.8348L11.8357 6.61871L11.8366 6.64035L11.8557 6.64139L11.8748 6.64241V6.66286V6.68331L11.8939 6.68434L11.913 6.68537L11.9139 6.70702L11.9148 6.72866H11.9328H11.9509L11.9518 6.75031L11.9527 6.77195L11.9716 6.77298L11.9906 6.774L11.9915 6.79549L11.9924 6.81697L12.0115 6.818L12.0306 6.81903V6.83948V6.85993L12.0497 6.86096L12.0688 6.86199L12.0697 6.88347L12.0706 6.90495L12.0895 6.90598L12.1085 6.90701L12.1094 6.92865L12.1103 6.9503H12.1285H12.1467V6.9728V6.99531H12.1664H12.1861L12.187 7.01696L12.1879 7.0386L12.207 7.03963L12.2261 7.04066V7.06111V7.08156L12.2452 7.08259L12.2643 7.08362L12.2652 7.10527L12.2661 7.12691H12.2841H12.3022L12.3031 7.14855L12.304 7.1702L12.3231 7.17123L12.3422 7.17226V7.19461V7.21695H12.3619H12.3816L12.3825 7.23859L12.3834 7.26024L12.4025 7.26127L12.4216 7.2623V7.28275V7.30319L12.4407 7.30422L12.4598 7.30526L12.4607 7.3269L12.4616 7.34854H12.4797H12.4977L12.4986 7.37019L12.4995 7.39183L12.5185 7.39286L12.5374 7.39388L12.5383 7.41537L12.5392 7.43685L12.5583 7.43788L12.5774 7.43891V7.45936V7.47981L12.5965 7.48084L12.6156 7.48187L12.6165 7.50335L12.6174 7.52484L12.6364 7.52586L12.6553 7.52689L12.6562 7.54853L12.6572 7.57018H12.6753H12.6935V7.59269V7.6152H12.7132H12.7329L12.7339 7.63684L12.7348 7.65848L12.7539 7.65952L12.773 7.66054V7.68099V7.70144L12.792 7.70247L12.8111 7.7035L12.812 7.72515L12.813 7.74679H12.8311H12.8493V7.7693V7.79181H8.32042H3.7915L3.7906 7.81345L3.78969 7.8351L3.73088 7.83604L3.67207 7.83698V7.85752V7.87806L3.65298 7.87909L3.63388 7.88012L3.63297 7.90176L3.63206 7.92341H3.59402H3.55598V7.94592V7.96843H3.53612H3.51626V7.99093V8.01344H3.49641H3.47655V8.03595V8.05846H3.45853H3.4405L3.4383 8.10175L3.4361 8.14504H3.4185H3.40091L3.39871 8.18833L3.3965 8.23162H3.37848H3.36046L3.36044 8.26538C3.36043 8.28395 3.35954 8.31434 3.35845 8.33291L3.35648 8.36667H3.33861H3.32074V8.5V8.63333H3.33861H3.35648L3.35845 8.66709C3.35954 8.68566 3.36043 8.71605 3.36044 8.73462L3.36046 8.76838H3.37848H3.3965L3.39871 8.81167L3.40091 8.85496H3.4185H3.4361L3.4383 8.89825L3.4405 8.94154H3.45853H3.47655V8.96405V8.98655H3.49641H3.51626V9.00906V9.03157H3.53612H3.55598V9.052V9.07243L3.59403 9.07492L3.63208 9.07741L3.63298 9.09865L3.63388 9.11988L3.65298 9.12091L3.67207 9.12194V9.14248V9.16302L3.73088 9.16396L3.78969 9.1649L3.7906 9.18654L3.7915 9.20819H8.32042H12.8493V9.2307V9.25321H12.8311H12.813L12.812 9.27485L12.8111 9.2965L12.792 9.29753L12.773 9.29856V9.31917V9.33978H12.7531H12.7332V9.36229V9.3848H12.7134H12.6935V9.40731V9.42982H12.6753H12.6572L12.6562 9.45147L12.6553 9.47311L12.6362 9.47414L12.6171 9.47517V9.49579V9.5164H12.5973H12.5774V9.53891V9.56142H12.5576H12.5377V9.58376V9.60611L12.5186 9.60714L12.4995 9.60817L12.4986 9.62981L12.4977 9.65146H12.4797H12.4616L12.4607 9.6731L12.4598 9.69474L12.4407 9.69578L12.4216 9.6968V9.71725V9.7377L12.4025 9.73873L12.3834 9.73976L12.3825 9.76124L12.3816 9.78273L12.3627 9.78375L12.3437 9.78478L12.3428 9.80643L12.3419 9.82807H12.3222H12.3025V9.85058V9.87309H12.2843H12.2661L12.2652 9.89473L12.2643 9.91638L12.2452 9.91741L12.2261 9.91844V9.93905V9.95967H12.2062H12.1864V9.98218V10.0047H12.1665H12.1467V10.0272V10.0497H12.1285H12.1103L12.1094 10.0713L12.1085 10.093L12.0894 10.094L12.0703 10.0951V10.1157V10.1363H12.0504H12.0306V10.1588V10.1813H12.0107H11.9909V10.2036V10.226L11.9718 10.227L11.9527 10.2281L11.9518 10.2497L11.9509 10.2713H11.9328H11.9148L11.9139 10.293L11.913 10.3146L11.8939 10.3157L11.8748 10.3167V10.3371V10.3576L11.8557 10.3586L11.8366 10.3596L11.8357 10.3811L11.8348 10.4026L11.8158 10.4036L11.7969 10.4047L11.796 10.4263L11.7951 10.448H11.7753H11.7556V10.4705V10.493H11.7374H11.7193L11.7184 10.5146L11.7174 10.5363L11.6984 10.5373L11.6793 10.5383V10.5589V10.5795H11.6594H11.6395V10.6021V10.6246H11.6197H11.5998V10.6471V10.6696H11.5816H11.5635L11.5625 10.6912L11.5616 10.7129L11.5425 10.7139L11.5235 10.7149V10.7355V10.7562H11.5036H11.4837V10.7787V10.8012H11.4639H11.444V10.8235V10.8459L11.4249 10.8469L11.4058 10.8479L11.4049 10.8696L11.404 10.8912H11.386H11.3679L11.367 10.9129L11.3661 10.9345L11.347 10.9355L11.3279 10.9366V10.957V10.9775L11.3088 10.9785L11.2897 10.9795L11.2888 11.001L11.2879 11.0225L11.269 11.0235L11.25 11.0245L11.2491 11.0462L11.2482 11.0678H11.2302H11.2121L11.2112 11.0895L11.2103 11.1111L11.1914 11.1122L11.1724 11.1132L11.1715 11.1347L11.1706 11.1561L11.1515 11.1572L11.1324 11.1582V11.1788V11.1994H11.1126H11.0927V11.2219V11.2444H11.0728H11.053V11.267V11.2895H11.0348H11.0166L11.0157 11.3111L11.0148 11.3328L10.9958 11.3338L10.9769 11.3348L10.976 11.3563L10.9751 11.3778L10.956 11.3788L10.9369 11.3798V11.423V11.4661H10.917H10.8972V11.4886V11.5111H10.8788H10.8605V11.5417C10.8605 11.5586 10.8596 11.589 10.8585 11.6093L10.8565 11.6462H10.8387H10.8208V11.8003V11.9544H10.8391H10.8575L10.8575 11.9864C10.8575 12.004 10.8584 12.0336 10.8595 12.0522L10.8614 12.086H10.8793H10.8972V12.131V12.176H10.917H10.9369V12.2193V12.2626H10.9567H10.9766V12.2851V12.3076H10.9965H11.0163V12.3301V12.3526H11.0362H11.056V12.373V12.3935L11.0942 12.396L11.1324 12.3985V12.4184V12.4384L11.1706 12.4409L11.2088 12.4434V12.4638V12.4842H11.2404C11.2578 12.4842 11.2846 12.4852 11.3 12.4865L11.3279 12.4887V12.509V12.5292H11.4455H11.5632V12.509V12.4887L11.5911 12.4865C11.6065 12.4852 11.6408 12.4842 11.6674 12.4842H11.7156L11.7165 12.4626L11.7174 12.4409L11.7381 12.4399L11.7587 12.4389V12.4187V12.3985L11.7969 12.396L11.8351 12.3935V12.373V12.3526H11.8549H11.8748V12.3301V12.3076H11.8946H11.9145V12.2851V12.2626H11.9344H11.9542V12.2401V12.2176H11.9725H11.9909V12.1968V12.176H12.0107H12.0306V12.1535V12.131H12.0504H12.0703V12.1085V12.086H12.0902H12.11V12.0635V12.0409H12.1283H12.1467V12.0202V11.9994H12.1665H12.1864V11.9769V11.9544H12.2062H12.2261V11.9319V11.9094H12.246H12.2658V11.8868V11.8643H12.2857H12.3055V11.8418V11.8193H12.3239H12.3422V11.7985V11.7778H12.3621H12.3819V11.7552V11.7327H12.4018H12.4216V11.7102V11.6877H12.4415H12.4613V11.6652V11.6427H12.4812H12.5011V11.6202V11.5977H12.5194H12.5377V11.5769V11.5561H12.5576H12.5774V11.5336V11.5111H12.5973H12.6171V11.4886V11.4661H12.637H12.6569V11.4436V11.4211H12.6752H12.6935V11.4003V11.3795H12.7134H12.7332V11.357V11.3345H12.7531H12.773V11.312V11.2895H12.7928H12.8127V11.267V11.2444H12.8325H12.8524V11.2219V11.1994H12.8707H12.889V11.1787V11.1579H12.9089H12.9288V11.1354V11.1129H12.9486H12.9685V11.0903V11.0678H12.9883H13.0082V11.0453V11.0228H13.028H13.0479V11.002V10.9813H13.0662H13.0846V10.9587V10.9362H13.1044H13.1243V10.9137V10.8912H13.1441H13.164V10.8687V10.8462H13.1839H13.2037V10.8237V10.8012H13.222H13.2404V10.7804V10.7596H13.2602H13.2801V10.7371V10.7146H13.2999H13.3198V10.6921V10.6696H13.3397H13.3595V10.6471V10.6246H13.3794H13.3992V10.6021V10.5795H13.4176H13.4359V10.5588V10.538H13.4557H13.4756V10.5155V10.493H13.4955H13.5153V10.4705V10.448H13.5352H13.555V10.4254V10.4029H13.5749H13.5948V10.3822V10.3614H13.6131H13.6314V10.3389V10.3164H13.6513H13.6711V10.2938V10.2713H13.691H13.7108V10.2488V10.2263H13.7307H13.7506V10.2038V10.1813H13.7689H13.7872V10.1605V10.1397H13.8071H13.8269V10.1172V10.0947H13.8468H13.8666V10.0722V10.0497H13.8865H13.9064V10.0272V10.0047H13.9262H13.9461V9.98218V9.95967H13.9644H13.9827V9.93889V9.91811H14.0026H14.0225V9.8956V9.87309H14.0423H14.0622V9.85058V9.82807H14.082H14.1019V9.80556V9.78305H14.1217H14.1416V9.76227V9.7415H14.1599H14.1783V9.71899V9.69648H14.1981H14.218V9.67397V9.65146H14.2378H14.2577V9.62895V9.60644H14.2775H14.2974V9.58393V9.56142H14.3157H14.3341V9.54064V9.51986H14.3539H14.3738V9.49735V9.47484H14.3936H14.4135V9.45233V9.42982H14.4334H14.4532V9.40731V9.3848H14.4731H14.4929V9.36229V9.33978H14.5113H14.5296V9.31901V9.29823H14.5494H14.5693V9.27572V9.25321H14.5892H14.609V9.2307V9.20819H14.6289H14.6487V9.18568V9.16317H14.6686H14.6884V9.14239V9.12161H14.7068H14.7251V9.0991V9.07659H14.745H14.7648V9.05408V9.03157H14.7847H14.8045V9.00906V8.98655H14.8244H14.8443V8.96405V8.94154H14.8624H14.8806L14.8815 8.91989L14.8824 8.89825L14.9015 8.89722L14.9206 8.89619V8.85306V8.80994H14.9405H14.9603V8.74241V8.67488H14.9782H14.9961L14.9981 8.64318C15.0006 8.60211 15.0006 8.39789 14.9981 8.35682L14.9961 8.32512H14.9782H14.9603V8.25759V8.19006H14.9405H14.9206V8.14694V8.10381L14.9015 8.10278L14.8824 8.10175L14.8815 8.08011L14.8806 8.05846H14.8624H14.8443V8.03595V8.01344H14.8244H14.8045V7.99093V7.96843H14.7847H14.7648V7.94592V7.92341H14.745H14.7251V7.9009V7.87839H14.7068H14.6884V7.85761V7.83683H14.6686H14.6487V7.81432V7.79181H14.6289H14.609V7.7693V7.74679H14.5892H14.5693V7.72428V7.70177H14.5494H14.5296V7.67926V7.65675H14.5113H14.4929V7.63597V7.6152H14.4731H14.4532V7.59269V7.57018H14.4334H14.4135V7.54767V7.52516H14.3936H14.3738V7.50265V7.48014H14.3539H14.3341V7.45936V7.43858H14.3157H14.2974V7.41607V7.39356H14.2775H14.2577V7.37105V7.34854H14.2378H14.218V7.32603V7.30352H14.1981H14.1783V7.28101V7.2585H14.1599H14.1416V7.23773V7.21695H14.1217H14.1019V7.19444V7.17193H14.082H14.0622V7.14942V7.12691H14.0423H14.0225V7.1044V7.08189H14.0026H13.9827V7.06111V7.04033H13.9644H13.9461V7.01782V6.99531H13.9262H13.9064V6.9728V6.9503H13.8865H13.8666V6.92779V6.90528H13.8468H13.8269V6.88277V6.86026H13.8071H13.7872V6.83948V6.8187H13.7689H13.7506V6.79619V6.77368H13.7307H13.7108V6.75117V6.72866H13.691H13.6711V6.70615V6.68364H13.6513H13.6314V6.66113V6.63862H13.6131H13.5948V6.61784V6.59707H13.5749H13.555V6.57456V6.55205H13.5352H13.5153V6.52954V6.50703H13.4955H13.4756V6.48452V6.46201H13.4557H13.4359V6.44123V6.42045H13.4176H13.3992V6.39794V6.37543H13.3794H13.3595V6.35292V6.33041H13.3397H13.3198V6.3079V6.28539H13.2999H13.2801V6.26288V6.24037H13.2602H13.2404V6.2196V6.19882H13.222H13.2037V6.17631V6.1538H13.1839H13.164V6.13129V6.10878H13.1441H13.1243V6.08627V6.06376H13.1044H13.0846V6.04125V6.01874H13.0662H13.0479V5.99796V5.97718H13.028H13.0082V5.95468V5.93217H12.9883H12.9685V5.90966V5.88715H12.9486H12.9288V5.86464V5.84213H12.9089H12.889V5.82135V5.80057H12.8707H12.8524V5.77806V5.75555H12.8325H12.8127V5.73304V5.71053H12.7928H12.773V5.68802V5.66551H12.7531H12.7332V5.643V5.62049H12.7134H12.6935V5.59971V5.57894H12.6752H12.6569V5.55643V5.53392H12.637H12.6171V5.51141V5.4889H12.5973H12.5774V5.46639V5.44388H12.5576H12.5377V5.42137V5.39886H12.5194H12.5011V5.37808V5.3573H12.4812H12.4613V5.33479V5.31228H12.4415H12.4216V5.28977V5.26726H12.4018H12.3819V5.24475V5.22224H12.3621H12.3422V5.20147V5.18069H12.3239H12.3055V5.15818V5.13567H12.2857H12.2658V5.11316V5.09065H12.246H12.2261V5.06814V5.04563H12.2062H12.1864V5.02312V5.00061H12.1665H12.1467V4.97983V4.95905H12.1283H12.11V4.93654V4.91404H12.0902H12.0703V4.89153V4.86902H12.0504H12.0306V4.84651V4.824H12.0107H11.9909V4.80149V4.77898H11.9725H11.9542V4.7582V4.73742H11.9344H11.9145V4.71491V4.6924H11.8946H11.8748V4.66989V4.64738H11.8549H11.8351V4.62695V4.60652L11.7969 4.60403L11.7587 4.60153V4.58132V4.56112L11.7381 4.5601L11.7174 4.55908L11.7165 4.53743L11.7156 4.51579H11.6674C11.6408 4.51579 11.6065 4.51478 11.5911 4.51354L11.5632 4.51129V4.49103V4.47077H11.4455H11.3279V4.49102Z" fill="white"/>
</svg>
