<svg width="64" height="64" viewBox="0 0 64 64" fill="none" xmlns="http://www.w3.org/2000/svg">
<rect width="64" height="64" rx="32" fill="#83D8F3"/>
<path fill-rule="evenodd" clip-rule="evenodd" d="M20.4929 18.1183C17.06 22.4812 16.8231 26.1237 19.6227 31.4916C20.742 33.6376 21.6571 37.9624 21.6571 41.1038C21.6571 47.1389 24.3751 52.4264 26.7294 50.9721C27.5002 50.4955 28.8278 47.3377 29.6789 43.9552C31.7337 35.7973 33.9124 36.135 33.9124 44.6129C33.9124 53.6941 37.1247 53.8507 40.8816 44.9534C42.3836 41.3952 44.8006 36.2575 46.2522 33.5341C49.6292 27.1981 49.5802 24.0689 46.0329 19.559C43.7153 16.6136 42.1058 15.9491 37.5223 16.0485C34.4135 16.1152 29.9676 15.7721 27.6418 15.2873C24.1 14.5479 22.9398 15.0068 20.4929 18.1183ZM32.9225 20.1023C36.934 23.2574 39.0583 23.7013 36.7311 20.8975C34.1385 17.7738 40.2484 16.5292 43.5424 19.51C46.6947 22.3627 47.0447 29.9351 44.1347 32.3494C43.0168 33.2768 41.4971 36.282 40.7591 39.0259C40.0197 41.7711 38.4455 45.223 37.2595 46.6977C35.2129 49.2441 35.142 49.1406 35.8474 44.6129C37.3126 35.2117 30.3761 33.0643 27.8256 42.1292C25.7735 49.4225 24.3805 49.9508 24.3805 43.4351C24.3805 40.2895 23.4614 35.5168 22.338 32.8288C17.2466 20.6429 23.7174 12.8621 32.9225 20.1023Z" fill="white"/>
</svg>
