<svg width="23" height="27" viewBox="0 0 23 27" fill="none" xmlns="http://www.w3.org/2000/svg">
<path fill-rule="evenodd" clip-rule="evenodd" d="M2.04942 2.30542C-0.471576 5.50942 -0.645576 8.18442 1.41042 12.1264C2.23242 13.7024 2.90442 16.8784 2.90442 19.1854C2.90442 23.6174 4.90042 27.5004 6.62942 26.4324C7.19542 26.0824 8.17042 23.7634 8.79542 21.2794C10.3044 15.2884 11.9044 15.5364 11.9044 21.7624C11.9044 28.4314 14.2634 28.5464 17.0224 22.0124C18.1254 19.3994 19.9004 15.6264 20.9664 13.6264C23.4464 8.97342 23.4104 6.67542 20.8054 3.36342C19.1034 1.20042 17.9214 0.712418 14.5554 0.785418C12.2724 0.834418 9.00742 0.582418 7.29942 0.226418C4.69842 -0.316582 3.84642 0.0204175 2.04942 2.30542ZM11.1774 3.76242C14.1234 6.07942 15.6834 6.40542 13.9744 4.34642C12.0704 2.05242 16.5574 1.13842 18.9764 3.32742C21.2914 5.42242 21.5484 10.9834 19.4114 12.7564C18.5904 13.4374 17.4744 15.6444 16.9324 17.6594C16.3894 19.6754 15.2334 22.2104 14.3624 23.2934C12.8594 25.1634 12.8074 25.0874 13.3254 21.7624C14.4014 14.8584 9.30742 13.2814 7.43442 19.9384C5.92742 25.2944 4.90442 25.6824 4.90442 20.8974C4.90442 18.5874 4.22942 15.0824 3.40442 13.1084C-0.334576 4.15942 4.41742 -1.55458 11.1774 3.76242Z" fill="white"/>
</svg>
