<svg width="24" height="23" viewBox="0 0 24 23" fill="none" xmlns="http://www.w3.org/2000/svg">
<path fill-rule="evenodd" clip-rule="evenodd" d="M8.53568 0.00382403C7.22763 0.0997604 6.13883 1.01305 5.62635 2.44424C5.11909 3.8608 5.19411 5.29228 5.85508 6.81085C6.53432 8.37129 7.56805 9.29759 8.62958 9.29702C9.2636 9.29668 9.81941 9.05619 10.2728 8.58608C11.0785 7.75055 11.5009 6.20232 11.508 4.05889C11.5108 3.22145 11.5013 3.11293 11.3873 2.68239C11.0807 1.52383 10.3607 0.553365 9.52585 0.173543C9.26806 0.056266 8.83432 -0.0180906 8.53568 0.00382403ZM15.8547 0.0242074C14.3804 0.162873 13.0979 1.43081 12.6341 3.20829C12.3059 4.46613 12.6303 6.74564 13.3426 8.18736C13.6849 8.87997 14.1233 9.33879 14.7108 9.61913C14.9699 9.74282 15.0334 9.75273 15.5543 9.75072C16.0436 9.7489 16.1593 9.73239 16.4342 9.62526C17.7394 9.11648 18.6686 7.78151 19.0494 5.86795C19.564 3.28207 18.8414 1.07707 17.2107 0.256943C16.764 0.0322939 16.4117 -0.0281867 15.8547 0.0242074ZM9.07896 1.05214C9.25323 1.112 9.39731 1.22123 9.66289 1.49474C10.078 1.92226 10.3143 2.36989 10.4668 3.01737C10.5556 3.39466 10.5629 3.52835 10.5386 4.34598C10.475 6.4919 10.0343 7.76816 9.216 8.17616C8.56991 8.49833 7.92081 8.23975 7.3105 7.41709C6.64229 6.51639 6.18061 5.05859 6.25657 4.08932C6.3369 3.06489 6.78074 2.00456 7.33787 1.50598C7.8495 1.04817 8.54193 0.867682 9.07896 1.05214ZM16.7332 1.13047C17.4716 1.51249 18.0459 2.43783 18.2111 3.51165C18.278 3.94669 18.2419 4.94093 18.1375 5.5422C18.0361 6.12557 17.7532 6.95536 17.5001 7.41221C17.2375 7.88587 16.7271 8.42344 16.3759 8.59623C15.8346 8.86255 15.274 8.87298 14.9047 8.62364C14.1628 8.12276 13.5532 6.40481 13.4803 4.60915C13.4576 4.05186 13.4679 3.9041 13.5553 3.53256C13.7968 2.50525 14.4319 1.60589 15.1905 1.21659C15.7218 0.944 16.3094 0.911224 16.7332 1.13047ZM2.85505 7.86453C1.68413 8.1108 0.47106 9.69756 0.106936 11.4592C-0.0683656 12.3073 -0.0282256 13.117 0.228013 13.9024C0.921708 16.0285 2.60205 17.1383 4.05085 16.4271C5.27688 15.8253 6.1331 14.051 6.22141 11.9295C6.24249 11.4228 6.2309 11.1953 6.1677 10.8775C5.89517 9.50674 5.00341 8.34569 3.92681 7.96003C3.61015 7.84658 3.13969 7.80467 2.85505 7.86453ZM21.3483 7.86338C20.7581 7.9652 20.1618 8.31856 19.5717 8.91624C18.6741 9.82555 17.8347 11.2533 17.4765 12.4802C17.3105 13.0486 17.2652 14.0284 17.3815 14.5329C17.5088 15.0854 17.7101 15.4522 18.1085 15.8577C18.5264 16.283 18.893 16.4868 19.4476 16.6021C20.97 16.9185 22.6253 15.5688 23.6034 13.2139C23.9374 12.4094 23.9965 12.1108 23.9998 11.2122C24.0022 10.5442 23.9863 10.3565 23.8963 9.99211C23.6018 8.79891 22.9392 8.02999 22.0619 7.86309C21.7794 7.80936 21.6612 7.8094 21.3483 7.86338ZM3.81465 8.98796C4.37183 9.27524 4.98158 10.1174 5.18275 10.8773C5.35795 11.5392 5.25491 12.7383 4.94012 13.7004C4.54032 14.9223 3.86681 15.6603 3.15025 15.6617C2.72885 15.6625 2.41337 15.5051 2.01014 15.0927C1.37339 14.4416 0.971895 13.4492 0.971989 12.5267C0.972129 11.0304 1.79549 9.43803 2.83157 8.9304C3.13701 8.78073 3.44814 8.79896 3.81465 8.98796ZM22.1478 8.91413C22.5086 9.10175 22.8283 9.64636 22.9732 10.3203C23.0968 10.8946 23.0537 11.8698 22.882 12.3845C22.4082 13.8053 21.4642 15.0805 20.5702 15.5073C20.1999 15.6841 19.6188 15.6939 19.2669 15.5292C18.356 15.1029 18.0422 14.0605 18.4192 12.7135C18.6412 11.9206 19.3231 10.6857 19.9636 9.9167C20.3767 9.4208 20.9425 8.99208 21.3523 8.86456C21.5819 8.79312 21.9604 8.81671 22.1478 8.91413ZM11.2949 12.2713C10.9172 12.3112 10.7182 12.3721 10.3432 12.5624C9.67984 12.899 9.1237 13.428 7.88926 14.8966C7.0383 15.909 6.61765 16.3277 5.69513 17.081C5.30772 17.3973 4.84768 17.8136 4.67285 18.006C3.32931 19.4851 3.66635 21.8018 5.3473 22.6416C5.94461 22.94 6.24033 23.0038 7.00989 22.9998C7.75387 22.996 8.23705 22.9204 9.10253 22.6721C11.0352 22.1177 10.8554 22.1516 11.8689 22.1521C12.6991 22.1525 12.8632 22.1672 13.6295 22.3094C15.4686 22.6507 15.7666 22.6951 16.4228 22.7254C18.2132 22.808 19.3939 22.3242 19.8818 21.308C20.083 20.8892 20.1978 20.2904 20.1658 19.8277C20.0974 18.8395 19.557 18.2434 18.1305 17.5824C16.3623 16.7632 16.2786 16.6892 15.0619 14.8727C14.2621 13.6784 13.9525 13.2984 13.4652 12.913C12.8121 12.3964 12.1007 12.1861 11.2949 12.2713ZM12.501 13.4317C12.9887 13.6774 13.3825 14.1253 14.276 15.4507C15.1516 16.7495 15.4159 17.0895 15.7907 17.3995C16.1918 17.7311 16.5832 17.954 17.5092 18.3779C19.0471 19.0819 19.3055 19.3734 19.1931 20.2771C19.1187 20.8749 18.8912 21.2221 18.4262 21.4472C17.9967 21.6553 17.501 21.7425 16.7572 21.741C16.0849 21.7397 15.7044 21.6925 14.4745 21.458C13.2702 21.2282 12.647 21.1547 11.8924 21.1532C11.0303 21.1515 10.6193 21.2209 9.44224 21.5668C8.22597 21.9243 7.95081 21.9792 7.21477 22.0112C6.69422 22.0338 6.51159 22.0232 6.23714 21.9547C5.26969 21.7131 4.69769 20.8393 4.82689 19.8006C4.91158 19.12 5.16646 18.782 6.28221 17.8707C6.65661 17.5649 7.18172 17.099 7.44913 16.8354C7.91912 16.372 8.08123 16.1884 9.24168 14.8056C10.282 13.566 10.8588 13.2051 11.7427 13.2412C12.1052 13.256 12.1989 13.2795 12.501 13.4317Z" fill="white"/>
</svg>
