<svg width="13" height="16" viewBox="0 0 13 16" fill="none" xmlns="http://www.w3.org/2000/svg">
<path fill-rule="evenodd" clip-rule="evenodd" d="M5.85056 0.0208599C4.79715 0.211433 3.88632 0.758066 3.2659 1.57207C2.49681 2.58117 2.25126 3.8843 2.60363 5.08645C3.0044 6.45386 4.09414 7.50112 5.50343 7.87328C5.83002 7.95952 5.94517 7.97081 6.50035 7.97081C7.05956 7.97081 7.16943 7.95986 7.50758 7.87069C9.72274 7.28652 11.0216 5.04635 10.3963 2.8886C10.0044 1.53623 8.93581 0.489225 7.56552 0.114811C7.26434 0.0325191 7.1059 0.0138642 6.61448 0.00269387C6.29017 -0.0046402 5.94643 0.00352137 5.85056 0.0208599ZM1.10076 9.68954C0.527171 9.89421 0.123625 10.3821 0.0269997 10.9878C-0.0324213 11.3603 0.0113264 12.227 0.108523 12.6036C0.269781 13.2281 0.611737 13.7932 1.1229 14.2797C1.86551 14.9864 2.8102 15.4493 4.14177 15.7589C4.85368 15.9244 5.30059 15.975 6.23406 15.9959C7.57545 16.0259 8.5624 15.8927 9.65484 15.5342C11.4498 14.9451 12.568 13.9377 12.8911 12.6184C12.9882 12.222 13.0321 11.3543 12.9737 10.9878C12.8886 10.4542 12.5426 9.98817 12.0572 9.75332L11.8072 9.63233L6.55741 9.62402C1.42507 9.6159 1.30303 9.61736 1.10076 9.68954Z" fill="#9D9D9D"/>
</svg>
