<svg width="10" height="12" viewBox="0 0 10 12" fill="none" xmlns="http://www.w3.org/2000/svg">
<path fill-rule="evenodd" clip-rule="evenodd" d="M4.50043 0.0156449C3.69012 0.158575 2.98948 0.568549 2.51223 1.17905C1.92063 1.93587 1.73173 2.91322 2.0028 3.81484C2.31108 4.84039 3.14934 5.62584 4.23341 5.90496C4.48463 5.96964 4.57321 5.9781 5.00027 5.9781C5.43043 5.9781 5.51494 5.9699 5.77506 5.90302C7.47903 5.46489 8.47818 3.78477 7.99713 2.16645C7.69567 1.15217 6.8737 0.366919 5.81963 0.0861083C5.58795 0.0243893 5.46608 0.0103982 5.08806 0.0020204C4.83859 -0.00348015 4.57418 0.00264103 4.50043 0.0156449ZM0.84674 7.26715C0.405516 7.42066 0.0950964 7.7866 0.020769 8.24084C-0.0249395 8.52024 0.00871264 9.17026 0.083479 9.45268C0.207524 9.92107 0.470567 10.3449 0.863771 10.7097C1.43501 11.2398 2.16169 11.587 3.18598 11.8192C3.7336 11.9433 4.07738 11.9812 4.79543 11.9969C5.82727 12.0195 6.58646 11.9195 7.4268 11.6506C8.80756 11.2088 9.66765 10.4532 9.91624 9.46376C9.99092 9.16654 10.0247 8.51572 9.97977 8.24084C9.91428 7.84065 9.64814 7.49112 9.2748 7.31499L9.08243 7.22425L5.04416 7.21801C1.09621 7.21192 1.00233 7.21302 0.84674 7.26715Z" fill="white"/>
</svg>
